<svg width="25" height="30" viewBox="0 0 25 30" fill="none" xmlns="http://www.w3.org/2000/svg">
<path d="M20.902 15.7275C20.8887 13.289 21.9912 11.4485 24.2229 10.093C22.9742 8.30561 21.0879 7.32223 18.5972 7.12954C16.2394 6.94349 13.6623 8.50495 12.7192 8.50495C11.7229 8.50495 9.4381 7.19598 7.64479 7.19598C3.93863 7.25578 0 10.1528 0 16.0464C0 17.7873 0.31881 19.5857 0.956429 21.4418C1.80659 23.8803 4.87513 29.8603 8.07651 29.7607C9.75027 29.7208 10.9325 28.5713 13.1111 28.5713C15.2232 28.5713 16.3191 29.7607 18.1854 29.7607C21.4134 29.7142 24.1897 24.279 25 21.8338C20.6695 19.7939 20.902 15.8538 20.902 15.7275ZM17.1427 4.81726C18.9559 2.66444 18.7899 0.704316 18.7367 0C17.136 0.0930229 15.2829 1.0897 14.2269 2.31893C13.0646 3.63454 12.3804 5.26244 12.5266 7.09632C14.2601 7.22921 15.8409 6.33884 17.1427 4.81726Z" fill="white"/>
</svg>
