<svg width="20" height="20" viewBox="0 0 20 20" fill="none" xmlns="http://www.w3.org/2000/svg">
<path d="M10 0C7.34946 0.00528524 4.80899 1.06055 2.93477 2.93477C1.06055 4.80899 0.00528524 7.34946 0 10V18.43C0 18.8464 0.16541 19.2457 0.459842 19.5402C0.754274 19.8346 1.15361 20 1.57 20H10C12.6522 20 15.1957 18.9464 17.0711 17.0711C18.9464 15.1957 20 12.6522 20 10C20 7.34784 18.9464 4.8043 17.0711 2.92893C15.1957 1.05357 12.6522 0 10 0ZM12.8 12.8H6.8C6.58783 12.8 6.38434 12.7157 6.23431 12.5657C6.08429 12.4157 6 12.2122 6 12C6 11.7878 6.08429 11.5843 6.23431 11.4343C6.38434 11.2843 6.58783 11.2 6.8 11.2H12.8C13.0122 11.2 13.2157 11.2843 13.3657 11.4343C13.5157 11.5843 13.6 11.7878 13.6 12C13.6 12.2122 13.5157 12.4157 13.3657 12.5657C13.2157 12.7157 13.0122 12.8 12.8 12.8ZM12.8 9.6H6.8C6.58783 9.6 6.38434 9.51571 6.23431 9.36569C6.08429 9.21566 6 9.01217 6 8.8C6 8.58783 6.08429 8.38434 6.23431 8.23431C6.38434 8.08429 6.58783 8 6.8 8H12.8C13.0122 8 13.2157 8.08429 13.3657 8.23431C13.5157 8.38434 13.6 8.58783 13.6 8.8C13.6 9.01217 13.5157 9.21566 13.3657 9.36569C13.2157 9.51571 13.0122 9.6 12.8 9.6Z" fill="#BBBFD0"/>
</svg>
