<svg width="15" height="15" viewBox="0 0 15 15" fill="none" xmlns="http://www.w3.org/2000/svg">
<path fill-rule="evenodd" clip-rule="evenodd" d="M6.5 10.5973C6.77614 10.5973 7 10.8287 7 11.1142V13.1384C9.74874 11.4785 11.4025 10.3043 12.3999 9.27901C12.9787 8.68403 13.2971 8.17665 13.482 7.69283C13.6679 7.20636 13.75 6.66282 13.75 5.94481C13.75 3.37533 11.7353 1.29235 9.25 1.29235H5.75C3.26472 1.29235 1.25 3.37533 1.25 5.94481C1.25 8.51429 3.26472 10.5973 5.75 10.5973H6.5ZM7 14.6324C13.6641 10.6673 15 9.04325 15 5.94481C15 2.66158 12.4256 0 9.25 0H5.75C2.57436 0 0 2.66158 0 5.94481C0 9.22804 2.57436 11.8896 5.75 11.8896V14.4832C5.75 14.8787 6.16196 15.1275 6.4943 14.9317C6.66618 14.8305 6.83473 14.7307 7 14.6324Z" fill="#BBBFD0"/>
</svg>
