<svg width="30" height="30" viewBox="0 0 30 30" fill="none" xmlns="http://www.w3.org/2000/svg">
<path d="M29.1667 15.2117C29.1667 13.9882 29.0674 13.0953 28.8525 12.1694H14.881V17.6919H23.0819C22.9167 19.0643 22.0238 21.1311 20.0396 22.5199L20.0118 22.7048L24.4294 26.127L24.7354 26.1575C27.5462 23.5616 29.1667 19.7421 29.1667 15.2117Z" fill="white"/>
<path d="M14.881 29.762C18.8988 29.762 22.2718 28.4392 24.7355 26.1576L20.0397 22.5199C18.7832 23.3962 17.0966 24.008 14.881 24.008C10.9459 24.008 7.60596 21.4122 6.41537 17.8242L6.24086 17.839L1.64743 21.3939L1.58736 21.5609C4.03442 26.422 9.06089 29.762 14.881 29.762Z" fill="white"/>
<path d="M6.41528 17.8239C6.10113 16.898 5.91933 15.9058 5.91933 14.8808C5.91933 13.8556 6.10113 12.8635 6.39875 11.9376L6.39043 11.7404L1.73944 8.12842L1.58726 8.2008C0.57871 10.218 0 12.4833 0 14.8808C0 17.2782 0.57871 19.5434 1.58726 21.5606L6.41528 17.8239Z" fill="white"/>
<path d="M14.881 5.75393C17.6753 5.75393 19.5602 6.96094 20.635 7.9696L24.8347 3.86905C22.2554 1.47157 18.8988 0 14.881 0C9.06089 0 4.03442 3.33992 1.58736 8.201L6.39885 11.9378C7.60597 8.34986 10.9459 5.75393 14.881 5.75393Z" fill="white"/>
</svg>
