<svg width="17" height="17" viewBox="0 0 17 17" fill="none" xmlns="http://www.w3.org/2000/svg">
<path d="M5.23364 7.79541V15.6239" stroke="#BBBFD0" stroke-width="1.5" stroke-linecap="round" stroke-linejoin="round"/>
<path d="M7.54287 15.6155H13.225C14.1189 15.6155 14.8804 14.941 15.0169 14.0318L15.8736 8.32055C16.0391 7.21927 15.2156 6.22895 14.1354 6.22895H10.0259V2.83971C10.0259 1.8238 9.22724 1 8.24229 1H8.21744C7.74565 1 7.34425 1.35427 7.26562 1.83662C6.99662 3.51415 6.49583 5.14049 5.7716 6.66863L5.24191 7.79125H2.12979C1.50488 7.79125 1 8.31201 1 8.95655V14.4544C1 15.099 1.50488 15.6197 2.12979 15.6197H5.23363" fill="#BBBFD0"/>
<path d="M7.54287 15.6155H13.225C14.1189 15.6155 14.8804 14.941 15.0169 14.0318L15.8736 8.32055C16.0391 7.21927 15.2156 6.22895 14.1354 6.22895H10.0259V2.83971C10.0259 1.8238 9.22724 1 8.24229 1H8.21744C7.74565 1 7.34425 1.35427 7.26562 1.83662C6.99662 3.51415 6.49583 5.14049 5.7716 6.66863L5.24191 7.79125H2.12979C1.50488 7.79125 1 8.31201 1 8.95655V14.4544C1 15.099 1.50488 15.6197 2.12979 15.6197H5.23363" stroke="#BBBFD0" stroke-width="1.5" stroke-linecap="round" stroke-linejoin="round"/>
</svg>
