<svg width="19" height="13" viewBox="0 0 19 13" fill="none" xmlns="http://www.w3.org/2000/svg">
<path d="M3.69748 0.146689C3.48993 -0.0488965 3.15342 -0.0488962 2.94587 0.146689L0.194579 2.73936C-0.0648598 2.98384 -0.0648598 3.38023 0.194579 3.62471C0.454019 3.86919 0.874653 3.86919 1.13409 3.62471L2.65734 2.18928V9.6928C2.65734 11.4215 4.14451 12.823 5.97902 12.823H10.2308C10.5977 12.823 10.8951 12.5427 10.8951 12.1969C10.8951 11.8512 10.5977 11.5709 10.2308 11.5709H5.97902C4.87831 11.5709 3.98601 10.73 3.98601 9.6928V2.18928L5.50926 3.62471C5.7687 3.86919 6.18934 3.86919 6.44878 3.62471C6.70822 3.38023 6.70822 2.98384 6.44878 2.73936L3.69748 0.146689Z" fill="#BBBFD0"/>
<path d="M15.3025 12.8533C15.5101 13.0489 15.8466 13.0489 16.0541 12.8533L18.8054 10.2606C19.0649 10.0162 19.0649 9.61977 18.8054 9.37529C18.546 9.13081 18.1253 9.13081 17.8659 9.37529L16.3427 10.8107V3.3072C16.3427 1.57846 14.8555 0.177031 13.021 0.177031H8.76923C8.40233 0.177031 8.10489 0.457317 8.10489 0.803066C8.10489 1.14881 8.40233 1.4291 8.76923 1.4291H13.021C14.1217 1.4291 15.014 2.26996 15.014 3.3072V10.8107L13.4907 9.37529C13.2313 9.13081 12.8107 9.13081 12.5512 9.37529C12.2918 9.61977 12.2918 10.0162 12.5512 10.2606L15.3025 12.8533Z" fill="#BBBFD0"/>
</svg>
