<svg width="20" height="20" viewBox="0 0 20 20" fill="none" xmlns="http://www.w3.org/2000/svg">
<path d="M8.5 0C3.80558 0 0 3.80558 0 8.5C0 13.1944 3.80558 17 8.5 17C13.1944 17 17 13.1944 17 8.5C17 6.24566 16.1045 4.08365 14.5104 2.48959C12.9163 0.895533 10.7543 0 8.5 0Z" fill="#BBBFD0"/>
<path d="M19.568 17.7163L17.0133 15.6541C16.6268 15.2702 16.0072 15.2702 15.6207 15.6541C15.4203 15.856 15.3076 16.1302 15.3076 16.4162C15.3076 16.7022 15.4203 16.9764 15.6207 17.1783L17.7407 19.6081C18.2576 20.1305 19.0955 20.1305 19.6124 19.6081C20.1292 19.0857 20.1292 18.2387 19.6124 17.7163H19.568Z" fill="#BBBFD0"/>
<path d="M8.5 2C4.91015 2 2 4.91015 2 8.5C2 12.0899 4.91015 15 8.5 15C12.0899 15 15 12.0899 15 8.5C15 6.77609 14.3152 5.12279 13.0962 3.90381C11.8772 2.68482 10.2239 2 8.5 2Z" fill="white"/>
</svg>
