<svg width="15" height="12" viewBox="0 0 15 12" fill="none" xmlns="http://www.w3.org/2000/svg">
<path fill-rule="evenodd" clip-rule="evenodd" d="M4.57312 6C4.57312 7.6 5.88288 8.90182 7.49995 8.90182C9.10971 8.90182 10.4195 7.6 10.4195 6C10.4195 4.39273 9.10971 3.09091 7.49995 3.09091C5.88288 3.09091 4.57312 4.39273 4.57312 6ZM11.8024 1.53455C13.0829 2.52364 14.1732 3.97091 14.9561 5.78182C15.0146 5.92 15.0146 6.08 14.9561 6.21091C13.3902 9.83273 10.6024 12 7.5 12H7.49268C4.39756 12 1.60976 9.83273 0.0439024 6.21091C-0.0146341 6.08 -0.0146341 5.92 0.0439024 5.78182C1.60976 2.16 4.39756 0 7.49268 0H7.5C9.05122 0 10.522 0.538182 11.8024 1.53455ZM7.5009 7.80933C8.50334 7.80933 9.32285 6.99478 9.32285 5.99842C9.32285 4.99478 8.50334 4.18024 7.5009 4.18024C7.41309 4.18024 7.32529 4.18751 7.2448 4.20205C7.21553 5.00206 6.557 5.64206 5.7448 5.64206H5.70822C5.68626 5.75842 5.67163 5.87478 5.67163 5.99842C5.67163 6.99478 6.49114 7.80933 7.5009 7.80933Z" fill="black"/>
</svg>
