<svg width="16" height="12" viewBox="0 0 16 12" fill="none" xmlns="http://www.w3.org/2000/svg">
<path fill-rule="evenodd" clip-rule="evenodd" d="M6.24268 8.29597C6.74226 8.5948 7.35112 8.77548 7.99901 8.77548C9.71631 8.77548 11.1136 7.53153 11.1136 6.00264C11.1136 5.42584 10.9106 4.88378 10.575 4.43901L9.72411 5.1965C9.86462 5.43279 9.94268 5.71076 9.94268 6.00264C9.94268 6.95472 9.06842 7.73306 7.99901 7.73306C7.67116 7.73306 7.35892 7.66357 7.09352 7.53848L6.24268 8.29597ZM13.143 2.1526C14.2749 3.06993 15.235 4.30694 15.9532 5.79412C16.0156 5.92616 16.0156 6.07905 15.9532 6.20414C14.2827 9.66498 11.3086 11.7359 7.99894 11.7359H7.99114C6.4846 11.7359 5.0405 11.2981 3.76814 10.4989L2.2538 11.8471C2.13671 11.9514 1.98839 12 1.84008 12C1.69177 12 1.53565 11.9514 1.42637 11.8471C1.23122 11.6734 1.2 11.3954 1.35612 11.1939L1.37953 11.1661L12.9245 0.887795C12.9401 0.873896 12.9557 0.859997 12.9635 0.846098C12.9791 0.832199 12.9947 0.8183 13.0025 0.804401L13.7363 0.151151C13.9705 -0.0503837 14.3373 -0.0503837 14.5637 0.151151C14.7979 0.352686 14.7979 0.68626 14.5637 0.887795L13.143 2.1526ZM4.87869 6.0053C4.87869 6.18598 4.90211 6.36667 4.93333 6.53346L2.04515 9.10476C1.26456 8.29862 0.585443 7.3257 0.0468354 6.20683C-0.0156118 6.08174 -0.0156118 5.92885 0.0468354 5.79681C1.7173 2.33597 4.69135 0.271982 7.99325 0.271982H8.00105C9.1173 0.271982 10.2023 0.508264 11.2015 0.95303L8.5943 3.27415C8.40696 3.24636 8.20401 3.22551 8.00105 3.22551C6.27595 3.22551 4.87869 4.46946 4.87869 6.0053Z" fill="black"/>
</svg>
